<svg width="35" height="35" viewBox="0 0 35 35" fill="none" xmlns="http://www.w3.org/2000/svg">
<g clip-path="url(#clip0_3_360)">
<mask id="mask0_3_360" style="mask-type:alpha" maskUnits="userSpaceOnUse" x="0" y="0" width="35" height="35">
<path fill-rule="evenodd" clip-rule="evenodd" d="M0 0H35V35H0V0Z" fill="white"/>
</mask>
<g mask="url(#mask0_3_360)">
<path fill-rule="evenodd" clip-rule="evenodd" d="M17.5 35C7.875 35 0 27.125 0 17.4125C0.0875 7.78749 7.875 -0.0875102 17.5875 -1.02342e-05C27.2125 0.0874898 35 7.87499 35 17.675C34.9125 27.2125 27.125 35 17.5 35Z" fill="#191919"/>
<path fill-rule="evenodd" clip-rule="evenodd" d="M19.1625 15.4001L18.6375 18.2001L23.625 18.9001L23.275 20.2126L18.375 19.5126C18.025 20.6501 17.85 21.8751 17.4125 22.9251C16.975 24.1501 16.5375 25.3751 16.0125 26.5126C15.3125 28.0001 14.0875 29.0501 12.425 29.3126C11.4625 29.4876 10.4125 29.4001 9.62501 28.7876C9.36251 28.6126 9.10001 28.2626 9.10001 28.0001C9.10001 27.6501 9.27501 27.2126 9.53751 27.0376C9.71251 26.9501 10.15 27.0376 10.4125 27.1251C10.675 27.3876 10.9375 27.7376 11.1125 28.0876C11.6375 28.7876 12.3375 28.8751 13.0375 28.3501C13.825 27.6501 14.2625 26.6876 14.525 25.7251C15.05 23.6251 15.575 21.6126 16.0125 19.5126V19.1626L11.375 18.4626L11.55 17.1501L16.3625 17.8501L16.975 15.1376L11.9875 14.3501L12.1625 12.9501L17.325 13.6501C17.5 13.1251 17.5875 12.6876 17.7625 12.2501C18.2 10.6751 18.6375 9.1001 19.6875 7.7001C20.7375 6.3001 21.9625 5.4251 23.8 5.5126C24.5875 5.5126 25.375 5.7751 25.9 6.3876C25.9875 6.4751 26.1625 6.6501 26.1625 6.8251C26.1625 7.1751 26.1625 7.6126 25.9 7.8751C25.55 8.1376 25.1125 8.0501 24.7625 7.7001C24.5 7.4376 24.325 7.1751 24.0625 6.9126C23.5375 6.2126 22.75 6.1251 22.1375 6.7376C21.7 7.1751 21.2625 7.7876 21 8.4001C20.3875 10.2376 19.95 12.1626 19.3375 14.0876L24.15 14.7876L23.8 16.1001L19.1625 15.4001Z" fill="white"/>
</g>
</g>
<defs>
<clipPath id="clip0_3_360">
<rect width="35" height="35" fill="white"/>
</clipPath>
</defs>
</svg>
