<svg width="35" height="35" viewBox="0 0 35 35" fill="none" xmlns="http://www.w3.org/2000/svg">
<g clip-path="url(#clip0_3_354)">
<mask id="mask0_3_354" style="mask-type:alpha" maskUnits="userSpaceOnUse" x="0" y="0" width="35" height="35">
<path fill-rule="evenodd" clip-rule="evenodd" d="M0 0H35V35H0V0Z" fill="white"/>
</mask>
<g mask="url(#mask0_3_354)">
<path fill-rule="evenodd" clip-rule="evenodd" d="M17.5 34.9997C7.875 34.9997 0 27.1247 0 17.4122C0.0875 7.78725 7.875 -0.0877544 17.5875 -0.000254375C27.2125 0.0872456 35 7.87475 35 17.6747C34.9125 27.2122 27.125 34.9997 17.5 34.9997Z" fill="#0090FF"/>
<path fill-rule="evenodd" clip-rule="evenodd" d="M19.1625 15.3999L18.6375 18.1999L23.625 18.8999L23.275 20.2124L18.375 19.5124C18.025 20.6499 17.85 21.8749 17.4125 22.9249C16.975 24.1499 16.5375 25.3749 16.0125 26.5124C15.3125 27.9999 14.0875 29.0499 12.425 29.3124C11.4625 29.4874 10.4125 29.3999 9.62501 28.7874C9.36251 28.6124 9.10001 28.2624 9.10001 27.9999C9.10001 27.6499 9.27501 27.2124 9.53751 27.0374C9.71251 26.9499 10.15 27.0374 10.4125 27.1249C10.675 27.3874 10.9375 27.7374 11.1125 28.0874C11.6375 28.7874 12.3375 28.8749 13.0375 28.3499C13.825 27.6499 14.2625 26.6874 14.525 25.7249C15.05 23.6249 15.575 21.6124 16.0125 19.5124V19.1624L11.375 18.4624L11.55 17.1499L16.3625 17.8499L16.975 15.1374L11.9875 14.3499L12.1625 12.9499L17.325 13.6499C17.5 13.1249 17.5875 12.6874 17.7625 12.2499C18.2 10.6749 18.6375 9.09986 19.6875 7.69986C20.7375 6.29986 21.9625 5.42486 23.8 5.51236C24.5875 5.51236 25.375 5.77486 25.9 6.38736C25.9875 6.47486 26.1625 6.64986 26.1625 6.82486C26.1625 7.17486 26.1625 7.61236 25.9 7.87486C25.55 8.13736 25.1125 8.04986 24.7625 7.69986C24.5 7.43736 24.325 7.17486 24.0625 6.91236C23.5375 6.21236 22.75 6.12485 22.1375 6.73735C21.7 7.17485 21.2625 7.78736 21 8.39986C20.3875 10.2374 19.95 12.1624 19.3375 14.0874L24.15 14.7874L23.8 16.0999L19.1625 15.3999Z" fill="white"/>
</g>
</g>
<defs>
<clipPath id="clip0_3_354">
<rect width="35" height="35" fill="white"/>
</clipPath>
</defs>
</svg>
