<svg width="20" height="20" viewBox="0 0 20 20" fill="none" xmlns="http://www.w3.org/2000/svg">
<g clip-path="url(#clip0_3_343)">
<path d="M17.5 4.16659V3.33325C17.5 1.95447 16.3788 0.833252 15 0.833252H2.5C1.12122 0.833252 0 1.95447 0 3.33325V16.6666C0 18.0454 1.12122 19.1666 2.5 19.1666H17.5C18.8788 19.1666 20 18.0454 20 16.6666V6.66659C20 5.2878 18.8788 4.16659 17.5 4.16659ZM2.5 2.49992H15C15.4596 2.49992 15.8333 2.87366 15.8333 3.33325V4.16659H2.5C2.04041 4.16659 1.66667 3.79285 1.66667 3.33325C1.66667 2.87366 2.04041 2.49992 2.5 2.49992ZM17.5 17.4999H2.5C2.04041 17.4999 1.66667 17.1262 1.66667 16.6666V5.69043C1.92749 5.7828 2.20784 5.83325 2.5 5.83325H17.5C17.9596 5.83325 18.3333 6.20699 18.3333 6.66659V8.74992H13.75C12.1417 8.74992 10.8333 10.0587 10.8333 11.6666C10.8333 13.2745 12.1417 14.5833 13.75 14.5833H18.3333V16.6666C18.3333 17.1262 17.9596 17.4999 17.5 17.4999ZM18.3333 12.9166H16.3833C16.5666 12.5294 16.6667 12.1058 16.6667 11.6666C16.6667 11.219 16.5621 10.7962 16.3812 10.4166H18.3333V12.9166ZM12.5 11.6666C12.5 10.9775 13.0609 10.4166 13.75 10.4166C14.4391 10.4166 15 10.9775 15 11.6666C15 12.0002 14.8696 12.3162 14.6387 12.5492C14.3996 12.7862 14.0837 12.9166 13.75 12.9166C13.0609 12.9166 12.5 12.3557 12.5 11.6666Z"/>
</g>
<defs>
<clipPath id="clip0_3_343">
<rect width="20" height="20"/>
</clipPath>
</defs>
</svg>
